<svg xmlns="http://www.w3.org/2000/svg" width="265.22" height="82.14" viewBox="0 0 265.22 82.14"><defs><style>.cls-1,.cls-2,.cls-3,.cls-4,.cls-5,.cls-6,.cls-7,.cls-8{fill:none;stroke-width:5.44px;}.cls-1{stroke:#e2001a;}.cls-2{stroke:#e2007a;}.cls-3{stroke:#f29400;}.cls-4{stroke:#fcea0d;}.cls-5{stroke:#c9d30e;}.cls-6{stroke:#00aad3;}.cls-7{stroke:#93117e;}.cls-8{stroke:gray;}.cls-9{fill:#e8522f;}.cls-10{fill:#fff;}</style></defs><title>Fichier 1</title><g id="Calque_2" data-name="Calque 2"><g id="Calque_1-2" data-name="Calque 1"><g id="Calque_1-2-2" data-name="Calque 1-2"><line class="cls-1" x1="25.62" y1="25.62" x2="25.62" y2="25.62"/><line class="cls-1" x1="25.62" y1="25.62" x2="25.62" y2="25.62"/><line class="cls-2" x1="4.36" y1="11.4" x2="25.62" y2="25.62"/><line class="cls-3" x1="20.64" y1="0.53" x2="25.62" y2="25.62"/><line class="cls-1" x1="25.62" y1="25.62" x2="25.62" y2="25.62"/><line class="cls-1" x1="25.62" y1="25.62" x2="25.62" y2="25.62"/><line class="cls-1" x1="25.62" y1="25.62" x2="25.62" y2="25.62"/><line class="cls-1" x1="25.62" y1="25.62" x2="25.62" y2="25.62"/><line class="cls-1" x1="25.62" y1="25.62" x2="25.62" y2="25.62"/><line class="cls-1" x1="25.62" y1="25.62" x2="25.62" y2="25.62"/><line class="cls-4" x1="39.84" y1="4.36" x2="25.62" y2="25.62"/><line class="cls-5" x1="50.71" y1="20.64" x2="25.62" y2="25.62"/><line class="cls-6" x1="46.89" y1="39.84" x2="25.62" y2="25.62"/><line class="cls-7" x1="25.62" y1="25.62" x2="30.6" y2="50.71"/><line class="cls-8" x1="25.62" y1="25.62" x2="11.4" y2="46.89"/><line class="cls-1" x1="0.53" y1="30.61" x2="25.62" y2="25.62"/><path class="cls-9" d="M39.35,54.81a1,1,0,0,1,.58.13l.22.16,6.74,6.74c.27.27.45.4.55.4s.27-.12.51-.36l6.73-6.74a1.28,1.28,0,0,1,.85-.33.9.9,0,0,1,1,1v16c-.05.67-.38,1-1,1a.93.93,0,0,1-1-.85V59.06c0-.22-.11-.33-.25-.33a.93.93,0,0,0-.55.33L48,64.73c-.29.29-.49.44-.58.44s-.26-.15-.55-.44q-3-3.08-5.73-5.73c-.24-.24-.43-.37-.55-.37s-.22.14-.22.41V71.8c0,.67-.38,1-1,1a.93.93,0,0,1-1-.85V55.8a.93.93,0,0,1,.87-1Z"/><path class="cls-9" d="M76.35,72.82c-.61,0-.94-.33-1-1v-1c0-.44-.14-.65-.33-.65a1.06,1.06,0,0,0-.66.32,8.92,8.92,0,0,1-6,2.31,8.65,8.65,0,0,1-5.64-2,9,9,0,0,1-3.15-5.1c-.14-.67.19-1,1-1,.61,0,.94.33,1,1a7.18,7.18,0,0,0,2.58,3.66,7.07,7.07,0,1,0-2.51-7.58c-.14.65-.5,1-1.06,1-.8,0-1.13-.33-1-1a9,9,0,0,1,8.79-7.07,8.22,8.22,0,0,1,5.67,2l.33.29a1.12,1.12,0,0,0,.7.37q.29,0,.33-.66v-1a.9.9,0,0,1,1-1c.63,0,.94.33,1,1v16Q77.27,72.82,76.35,72.82Z"/><path class="cls-9" d="M82.47,57.92a8.54,8.54,0,0,1,5-3.11.7.7,0,0,1,.73.22,1.19,1.19,0,0,1,.29.81c0,.56-.33.89-1,1a7.26,7.26,0,0,0-3.63,2.45,6.93,6.93,0,0,0-1.42,4.25v8.53c0,.49-.38.73-1,.73s-1-.24-1-.73V63.63A8.81,8.81,0,0,1,82.47,57.92Z"/><path class="cls-9" d="M90.66,46.76a1.08,1.08,0,1,1,1.07,1.1,1,1,0,0,1-1.07-.92A.54.54,0,0,1,90.66,46.76Zm1,8.05a.9.9,0,0,1,1,1v16a.94.94,0,0,1-.88,1h-.12a.93.93,0,0,1-1-.85V55.81a.93.93,0,0,1,.85-1,.54.54,0,0,1,.18,0Z"/><path class="cls-9" d="M144.52,77.6a7,7,0,0,0,1.42-4.27V71c0-.44-.14-.66-.34-.66a1.16,1.16,0,0,0-.69.36l-.33.3a8.29,8.29,0,0,1-5.67,2,9,9,0,0,1-8.79-7.06c-.14-.66.2-1,1-1,.56,0,.89.33,1,1a7,7,0,1,0,6.79-9,6.82,6.82,0,0,0-4.23,1.43A7.08,7.08,0,0,0,132.1,62c0,.67-.38,1-1,1-.8,0-1.13-.33-1-1A9.06,9.06,0,0,1,148,64v9.29A8.8,8.8,0,0,1,146,79a8.53,8.53,0,0,1-5.06,3.11.68.68,0,0,1-.73-.22,1.18,1.18,0,0,1-.29-.8c0-.56.34-.9,1-1A6.63,6.63,0,0,0,144.52,77.6Z"/><path class="cls-9" d="M167.64,72.82c-.61,0-.94-.33-1-1v-1c0-.44-.13-.65-.33-.65a1.11,1.11,0,0,0-.66.32,8.87,8.87,0,0,1-6,2.31,8.7,8.7,0,0,1-5.63-2,9,9,0,0,1-3.15-5.1c-.15-.67.19-1,1-1,.61,0,.94.33,1,1a7.18,7.18,0,0,0,2.58,3.66,7,7,0,1,0,0-11.2A6.68,6.68,0,0,0,153,61.82c-.15.65-.5,1-1.06,1-.81,0-1.14-.33-1-1a9,9,0,0,1,8.78-7.07,8.25,8.25,0,0,1,5.68,2l.33.29a1.15,1.15,0,0,0,.69.37q.3,0,.33-.66v-1c0-.67.38-1,1-1s.95.33,1,1v16C168.61,72.46,168.25,72.82,167.64,72.82Z"/><path class="cls-9" d="M184.42,66a4.76,4.76,0,0,0-1-1.54,4.57,4.57,0,0,0-1.52-1,4.29,4.29,0,0,0-1.83-.38h-4.28a2.86,2.86,0,0,1-2.11-.9,3.07,3.07,0,0,1,0-4.28,3,3,0,0,1,2.11-.93h7.46a1,1,0,0,0,.71-1.73,1,1,0,0,0-.72-.3h-7.46a4.74,4.74,0,0,0-2,.4,5.24,5.24,0,0,0-1.59,1.09,5,5,0,0,0-1,1.57,5.24,5.24,0,0,0-.39,2,5.06,5.06,0,0,0,.39,2,5.14,5.14,0,0,0,1.07,1.62,5.24,5.24,0,0,0,1.59,1.09,4.74,4.74,0,0,0,2,.4h4.28a2.62,2.62,0,0,1,1.92.82,2.84,2.84,0,0,1,0,3.95,2.59,2.59,0,0,1-1.92.82h-7.91a.91.91,0,0,0-.71.3,1.05,1.05,0,0,0,0,1.47.91.91,0,0,0,.71.3h7.91a4.62,4.62,0,0,0,1.83-.38,4.67,4.67,0,0,0,1.52-1,5,5,0,0,0,1-5.39Z"/><path class="cls-9" d="M203.84,79a8.8,8.8,0,0,1-2-5.71V71q0-.66-.33-.66a1.11,1.11,0,0,0-.7.36l-.33.3a8.29,8.29,0,0,1-5.67,2,8.81,8.81,0,0,1-5.67-2A8.51,8.51,0,0,1,186,66c-.15-.67.19-1,1-1,.56,0,.89.33,1,1a7,7,0,1,0,6.77-9.06h0a7.1,7.1,0,0,0-6.8,5.12.93.93,0,0,1-.85,1H187c-.8,0-1.13-.33-1-1A9,9,0,0,1,203.84,64v9.29a7,7,0,0,0,1.41,4.27,6.7,6.7,0,0,0,3.64,2.5c.68.15,1,.49,1,1a1.12,1.12,0,0,1-.3.8.66.66,0,0,1-.73.22A8.51,8.51,0,0,1,203.84,79Z"/><path class="cls-9" d="M208.16,54.81c.61,0,1,.33,1,1v8a6.86,6.86,0,0,0,2,5,6.77,6.77,0,0,0,5,2.06,6.87,6.87,0,0,0,5-2.08,6.74,6.74,0,0,0,2.1-5v-8c.05-.67.39-1,1-1s1,.33,1,1v8a8.66,8.66,0,0,1-2.69,6.39,8.85,8.85,0,0,1-6.42,2.65,8.63,8.63,0,0,1-6.37-2.65,8.74,8.74,0,0,1-2.64-6.39v-8A1,1,0,0,1,208.16,54.81Z"/><path class="cls-9" d="M255.27,58.22c0-.78-.52-1.24-1.54-1.36h-5.49a1,1,0,1,1,0-2h15.92a1,1,0,1,1,0,2h-5.27c-1.05,0-1.57.42-1.57,1.25V71.8c-.05.68-.39,1-1,1a.92.92,0,0,1-1-.83V71.8Z"/><path class="cls-9" d="M113.25,60.27a8.81,8.81,0,0,0-1.9-2.7,9.14,9.14,0,0,0-2.72-1.84,7.79,7.79,0,0,0-3.26-.69,9.53,9.53,0,0,0-3.49.78,9,9,0,0,0-2.78,1.87,8.82,8.82,0,0,0-1.82,9.59A8.4,8.4,0,0,0,99.16,70a8.73,8.73,0,0,0,6.13,2.45,9.91,9.91,0,0,0,3.45-.56A6.79,6.79,0,0,0,111.43,70a1,1,0,0,0-.68-1.75,1,1,0,0,0-.76.32A7,7,0,0,1,107.87,70a6.71,6.71,0,0,1-4.93.08,7.05,7.05,0,0,1-2-1.17,6.85,6.85,0,0,1-1.48-1.78,6.07,6.07,0,0,1-.78-2.22v-.14H113a1.12,1.12,0,0,0,.74-.3.86.86,0,0,0,.28-.67v-.18A8.59,8.59,0,0,0,113.25,60.27ZM98.7,62.73v-.15a6.71,6.71,0,0,1,.8-2.16,6.27,6.27,0,0,1,1.5-1.74,7.13,7.13,0,0,1,2-1.15,6.17,6.17,0,0,1,2.33-.43,6.26,6.26,0,0,1,2.34.43,7.13,7.13,0,0,1,2,1.15,6.81,6.81,0,0,1,2.29,3.9v.15Z"/><polygon class="cls-10" points="98.81 64.88 98.81 64.87 98.81 64.87 98.81 64.88"/><path class="cls-9" d="M245.5,60.27a8.81,8.81,0,0,0-1.9-2.7,9.14,9.14,0,0,0-2.72-1.84,7.79,7.79,0,0,0-3.26-.69,9.53,9.53,0,0,0-3.49.78,9,9,0,0,0-2.78,1.87,8.82,8.82,0,0,0-1.82,9.59A8.4,8.4,0,0,0,231.41,70a8.73,8.73,0,0,0,6.13,2.45,9.91,9.91,0,0,0,3.45-.56A6.79,6.79,0,0,0,243.68,70a1,1,0,0,0-.68-1.75,1,1,0,0,0-.76.32A7,7,0,0,1,240.12,70a6.71,6.71,0,0,1-4.93.08,7.05,7.05,0,0,1-2-1.17,6.85,6.85,0,0,1-1.48-1.78,6.07,6.07,0,0,1-.78-2.22v-.14h14.35a1.12,1.12,0,0,0,.74-.3.86.86,0,0,0,.28-.67v-.18A8.62,8.62,0,0,0,245.5,60.27ZM231,62.73v-.15a6.71,6.71,0,0,1,.8-2.16,6.56,6.56,0,0,1,1.45-1.74,7.13,7.13,0,0,1,2-1.15,6.17,6.17,0,0,1,2.33-.43,6.26,6.26,0,0,1,2.34.43,7.13,7.13,0,0,1,2,1.15,6.81,6.81,0,0,1,2.29,3.9v.15Z"/><polygon class="cls-10" points="231.06 64.88 231.06 64.87 231.06 64.87 231.06 64.88"/><path class="cls-9" d="M59.67,36.36a.92.92,0,0,1-.91.93h0a5,5,0,0,1-2.31-.54,4.82,4.82,0,0,1-1.51-1.26,4.77,4.77,0,0,1-.84-1.59,5.14,5.14,0,0,1-.26-1.5V18.81a.93.93,0,0,1,1.86,0V32.4a3.59,3.59,0,0,0,.11.72,3,3,0,0,0,.43,1,2.9,2.9,0,0,0,2.52,1.32.91.91,0,0,1,.93.91v0Z"/><path class="cls-9" d="M73.83,41.79a.93.93,0,0,1-1.86,0v-6.9a7.15,7.15,0,0,1-8.19,1.83,7.22,7.22,0,0,1-3.84-3.84,7,7,0,0,1-.57-2.82V23.64a.93.93,0,0,1,1.86,0v6.42a5.34,5.34,0,0,0,.42,2.09A5.44,5.44,0,0,0,64.52,35a5.35,5.35,0,0,0,4.12,0,5.49,5.49,0,0,0,1.68-1.1,5.34,5.34,0,0,0,1.16-1.63,5.55,5.55,0,0,0,.49-2V23.64a.93.93,0,0,1,1.86,0Z"/><path class="cls-9" d="M86.37,26.13a6.44,6.44,0,0,0-1.71-1.06,5.24,5.24,0,0,0-2.07-.41,5.16,5.16,0,0,0-2.08.42,5.4,5.4,0,0,0-1.71,1.16,5.47,5.47,0,0,0-1.16,5.95A5.44,5.44,0,0,0,80.51,35a5.33,5.33,0,0,0,2.08.42,5.26,5.26,0,0,0,2.07-.4,5.6,5.6,0,0,0,1.71-1.13.94.94,0,0,1,1.32,0,.87.87,0,0,1,.26.68,1.08,1.08,0,0,1-.35.73,7.24,7.24,0,0,1-.73.62,6.8,6.8,0,0,1-1.11.64,7.91,7.91,0,0,1-1.44.5,7.37,7.37,0,0,1-6.83-1.85,6.86,6.86,0,0,1-1.56-2.28A7.16,7.16,0,0,1,77.45,25a7.54,7.54,0,0,1,2.31-1.56,7.75,7.75,0,0,1,2.89-.65,5.86,5.86,0,0,1,1.67.23,8.23,8.23,0,0,1,1.38.54,7.59,7.59,0,0,1,1.09.67q.48.36.78.63a1.37,1.37,0,0,1,.32.56.67.67,0,0,1-.2.73.94.94,0,0,1-1.32,0Z"/><path class="cls-9" d="M91.29,30.93a5.17,5.17,0,0,0,.63,1.79A5.44,5.44,0,0,0,98.71,35a5.6,5.6,0,0,0,1.71-1.13.94.94,0,0,1,1.32,0,.92.92,0,0,1,0,1.32h0a5.69,5.69,0,0,1-2.23,1.58,8.22,8.22,0,0,1-2.87.46,7.26,7.26,0,0,1-5.1-2A6.86,6.86,0,0,1,90,33a7.42,7.42,0,0,1,0-5.68A7,7,0,0,1,91.46,25a7.54,7.54,0,0,1,2.31-1.56,7.75,7.75,0,0,1,2.89-.65,6.54,6.54,0,0,1,2.72.57,7.71,7.71,0,0,1,2.26,1.53,7.29,7.29,0,0,1,2.22,5,.82.82,0,0,1-.25.78,1,1,0,0,1-.68.27Zm5.31-6.27a5.21,5.21,0,0,0-1.87.35,5.77,5.77,0,0,0-1.59.93A4.93,4.93,0,0,0,92,27.33a5.72,5.72,0,0,0-.65,1.74h10.59a5.49,5.49,0,0,0-.66-1.74,5.25,5.25,0,0,0-1.18-1.39A5.58,5.58,0,0,0,98.48,25,5,5,0,0,0,96.6,24.66Zm2.85-8a.79.79,0,0,1,.71-.13.83.83,0,0,1,.55.43,1,1,0,0,1-.3,1.29l-4.26,2.49a1,1,0,0,1-.69.11,1,1,0,0,1-.6-.44,1.06,1.06,0,0,1-.06-.7,1,1,0,0,1,.39-.56Z"/><path class="cls-9" d="M107.19,30.93a5.17,5.17,0,0,0,.63,1.79A5.44,5.44,0,0,0,114.61,35a5.6,5.6,0,0,0,1.71-1.13.94.94,0,0,1,1.32,0,.92.92,0,0,1,0,1.32h0a5.69,5.69,0,0,1-2.23,1.58,8.22,8.22,0,0,1-2.87.46,7.26,7.26,0,0,1-5.1-2A6.86,6.86,0,0,1,105.88,33a7.42,7.42,0,0,1,0-5.68,7,7,0,0,1,1.49-2.3,7.54,7.54,0,0,1,2.31-1.56,7.75,7.75,0,0,1,2.89-.65,6.54,6.54,0,0,1,2.72.57,7.71,7.71,0,0,1,2.26,1.53,7.29,7.29,0,0,1,2.22,5,.82.82,0,0,1-.25.78,1,1,0,0,1-.68.27Zm5.31-6.27a5.21,5.21,0,0,0-1.87.35,5.77,5.77,0,0,0-1.59.93,5,5,0,0,0-1.17,1.39,5.72,5.72,0,0,0-.65,1.74h10.59a5.49,5.49,0,0,0-.66-1.74A5.14,5.14,0,0,0,116,25.94a5.77,5.77,0,0,0-1.59-.93A5,5,0,0,0,112.5,24.66Z"/><path class="cls-9" d="M136.29,37.29a6.57,6.57,0,0,1-3.06-.85,10,10,0,0,1-2.37-1.88v7.23a.93.93,0,1,1-1.86,0V30a7.12,7.12,0,0,1,.57-2.88,6.86,6.86,0,0,1,1.56-2.28,7.26,7.26,0,0,1,5.1-2,7.15,7.15,0,0,1,2.85.57,7.37,7.37,0,0,1,2.3,1.56,7.49,7.49,0,0,1,1.54,2.3,7.05,7.05,0,0,1,0,5.59A7.63,7.63,0,0,1,139,36.71,6.67,6.67,0,0,1,136.29,37.29ZM130.86,30a5.57,5.57,0,0,0,.48,2.16,5.72,5.72,0,0,0,1.17,1.71,5.19,5.19,0,0,0,3.72,1.53,5.39,5.39,0,0,0,2.1-.42,5.22,5.22,0,0,0,2.88-2.88,5.39,5.39,0,0,0,.42-2.1,5.12,5.12,0,0,0-.42-2.08,5.39,5.39,0,0,0-5-3.29,5.16,5.16,0,0,0-2.08.42,5.48,5.48,0,0,0-2.87,2.87A5.3,5.3,0,0,0,130.86,30Z"/><path class="cls-9" d="M151.65,22.77a6.66,6.66,0,0,1,2.75.59,7.55,7.55,0,0,1,3.87,3.88,7.08,7.08,0,0,1,0,5.6,7.57,7.57,0,0,1-1.54,2.29,7.37,7.37,0,0,1-2.3,1.56,7.15,7.15,0,0,1-2.85.57,7.26,7.26,0,0,1-5.1-2A6.86,6.86,0,0,1,144.92,33a7.28,7.28,0,0,1,1.53-8,7.54,7.54,0,0,1,2.31-1.56A8,8,0,0,1,151.65,22.77Zm-5.43,7.29a5.34,5.34,0,0,0,.42,2.09A5.44,5.44,0,0,0,149.51,35a5.33,5.33,0,0,0,2.08.42,5.39,5.39,0,0,0,2.1-.42,5.28,5.28,0,0,0,2.88-2.86,5.17,5.17,0,0,0,.42-2.09,5.42,5.42,0,0,0-1.57-3.82,5.32,5.32,0,0,0-1.73-1.16,5.39,5.39,0,0,0-2.1-.42,5.16,5.16,0,0,0-2.08.42,5.4,5.4,0,0,0-1.71,1.16A5.49,5.49,0,0,0,146.64,28,5.2,5.2,0,0,0,146.22,30.06Z"/><path class="cls-9" d="M166.23,36.36a.92.92,0,0,1-.91.93h0a5,5,0,0,1-2.31-.54,4.82,4.82,0,0,1-1.51-1.26,4.77,4.77,0,0,1-.84-1.59,5.14,5.14,0,0,1-.26-1.5V18.81a.93.93,0,0,1,1.86,0V32.4a3.59,3.59,0,0,0,.11.72,3,3,0,0,0,.43,1,2.9,2.9,0,0,0,2.52,1.32.91.91,0,0,1,.93.91v0Z"/><path class="cls-9" d="M180.39,41.79a.93.93,0,1,1-1.86,0v-6.9a7.15,7.15,0,0,1-8.19,1.83,7.22,7.22,0,0,1-3.84-3.84,7,7,0,0,1-.57-2.82V23.64a.93.93,0,1,1,1.86,0v6.42a5.34,5.34,0,0,0,.42,2.09A5.44,5.44,0,0,0,171.08,35a5.35,5.35,0,0,0,4.12,0,5.49,5.49,0,0,0,1.68-1.1A5.25,5.25,0,0,0,178,32.3a5.55,5.55,0,0,0,.49-2V23.64a.93.93,0,0,1,1.86,0V41.79Z"/><path class="cls-9" d="M181.89,24.09a1,1,0,0,1,0-.75.91.91,0,0,1,.48-.54.83.83,0,0,1,.72,0,.87.87,0,0,1,.48.48l4.17,10.62,4.32-10.62a1.25,1.25,0,0,1,.54-.48.76.76,0,0,1,.66,0,.89.89,0,0,1,.49,1.17v0l-.25.62-.8,2q-.57,1.39-1.53,3.81l-2.43,6.13a1.34,1.34,0,0,1-.34.54.9.9,0,0,1-.65.21.92.92,0,0,1-.67-.25,1.46,1.46,0,0,1-.35-.5q-1.29-3.45-2.2-5.82c-.61-1.58-1.11-2.87-1.52-3.86s-.68-1.68-.86-2.11A5,5,0,0,1,181.89,24.09Z"/><path class="cls-9" d="M200.94,22.77a6.66,6.66,0,0,1,2.75.59,7.55,7.55,0,0,1,3.87,3.88,6.85,6.85,0,0,1,.58,2.82v6.33a.93.93,0,1,1-1.86,0V34.56a9.35,9.35,0,0,1-2.38,1.91,6.06,6.06,0,0,1-3,.79,7.26,7.26,0,0,1-5.1-2A6.86,6.86,0,0,1,194.24,33a7.38,7.38,0,0,1,1.5-8,7.54,7.54,0,0,1,2.31-1.56A8,8,0,0,1,200.94,22.77Zm-5.43,7.29a5.34,5.34,0,0,0,.42,2.09A5.44,5.44,0,0,0,198.8,35a5.35,5.35,0,0,0,4.12,0,5.46,5.46,0,0,0,2.87-2.82,5.91,5.91,0,0,0,.49-2.15,5.42,5.42,0,0,0-1.57-3.82A5.31,5.31,0,0,0,203,25.08a5.39,5.39,0,0,0-2.1-.42,5.16,5.16,0,0,0-2.08.42,5.4,5.4,0,0,0-1.71,1.16,5.45,5.45,0,0,0-1.6,3.82Z"/><path class="cls-9" d="M215.67,36.36a.92.92,0,0,1-.91.93h0a5,5,0,0,1-2.31-.54,4.82,4.82,0,0,1-1.51-1.26,4.77,4.77,0,0,1-.84-1.59,5.14,5.14,0,0,1-.26-1.5V18.81a.93.93,0,0,1,1.86,0V32.4a3.59,3.59,0,0,0,.11.72,3,3,0,0,0,.43,1,2.9,2.9,0,0,0,2.52,1.32.91.91,0,0,1,.93.91v0Z"/><path class="cls-9" d="M218.31,30.93a5.17,5.17,0,0,0,.63,1.79A5.44,5.44,0,0,0,225.73,35a5.6,5.6,0,0,0,1.71-1.13.94.94,0,0,1,1.32,0,.92.92,0,0,1,0,1.32h0a5.69,5.69,0,0,1-2.23,1.58,8.22,8.22,0,0,1-2.87.46,7.26,7.26,0,0,1-5.1-2A7,7,0,0,1,217,32.94,7.32,7.32,0,0,1,218.48,25a7.54,7.54,0,0,1,2.31-1.56,7.75,7.75,0,0,1,2.89-.65,6.54,6.54,0,0,1,2.72.57,7.71,7.71,0,0,1,2.26,1.53,7.29,7.29,0,0,1,2.22,5,.82.82,0,0,1-.25.78,1,1,0,0,1-.68.27Zm5.31-6.27a5.21,5.21,0,0,0-1.87.35,5.77,5.77,0,0,0-1.59.93A5,5,0,0,0,219,27.33a5.72,5.72,0,0,0-.65,1.74h10.59a5.49,5.49,0,0,0-.66-1.74,5.25,5.25,0,0,0-1.18-1.39,5.61,5.61,0,0,0-1.6-.94A5,5,0,0,0,223.62,24.66Z"/><path class="cls-9" d="M232.29,29.94a7,7,0,0,1,.57-2.82,7.23,7.23,0,0,1,13.32,0,7,7,0,0,1,.57,2.82v6.42a.93.93,0,0,1-1.86,0V29.94a5.12,5.12,0,0,0-.42-2.08,5.37,5.37,0,0,0-7-2.86,5.48,5.48,0,0,0-2.87,2.87,5.3,5.3,0,0,0-.42,2.08v6.42a.93.93,0,0,1-1.86,0Z"/><path class="cls-9" d="M248.4,18.81a.93.93,0,1,1,1.86,0v3.84h6.63a1.09,1.09,0,0,1,.77.27.92.92,0,0,1,0,1.3l0,0a1.09,1.09,0,0,1-.77.27h-6.63v5.55a5.34,5.34,0,0,0,.42,2.09A5.44,5.44,0,0,0,253.55,35a5.33,5.33,0,0,0,2.08.42,5.16,5.16,0,0,0,3.75-1.53,1,1,0,0,1,1.32-.12,1,1,0,0,1,.3.6,1,1,0,0,1-.15.69,7,7,0,0,1-2.34,1.64,7.13,7.13,0,0,1-2.88.58,7,7,0,0,1-2.82-.57A7.24,7.24,0,0,1,249,32.88a7,7,0,0,1-.57-2.82Z"/></g></g></g></svg>