<svg xmlns="http://www.w3.org/2000/svg" viewBox="0 0 265.33 82.28"><defs><style>.cls-1,.cls-2,.cls-3,.cls-4,.cls-5,.cls-6,.cls-7,.cls-8{fill:none;stroke-width:5.44px;}.cls-1{stroke:#e2001a;}.cls-2{stroke:#e2007a;}.cls-3{stroke:#f29400;}.cls-4{stroke:#fcea0d;}.cls-5{stroke:#c9d30e;}.cls-6{stroke:#00aad3;}.cls-7{stroke:#93117e;}.cls-8{stroke:gray;}.cls-11,.cls-9{fill:#e8522f;}.cls-10{fill:#fff;}.cls-11{font-size:30px;font-family:Arista2.0Light, Arista 2.0 Light;}.cls-12{letter-spacing:-0.02em;}.cls-13{letter-spacing:-0.02em;}.cls-14{letter-spacing:-0.04em;}</style></defs><title>Logo-MG-LPolyvalent-2018</title><g id="Calque_2" data-name="Calque 2"><g id="Calque_1-2" data-name="Calque 1"><line class="cls-1" x1="25.72" y1="25.72" x2="25.72" y2="25.72"/><line class="cls-1" x1="25.72" y1="25.72" x2="25.72" y2="25.72"/><line class="cls-2" x1="42.09" y1="6.06" x2="25.72" y2="25.72"/><line class="cls-3" x1="51.2" y1="23.39" x2="25.72" y2="25.72"/><line class="cls-1" x1="25.72" y1="25.72" x2="25.72" y2="25.72"/><line class="cls-1" x1="25.72" y1="25.72" x2="25.72" y2="25.72"/><line class="cls-1" x1="25.72" y1="25.72" x2="25.72" y2="25.72"/><line class="cls-1" x1="25.72" y1="25.72" x2="25.72" y2="25.72"/><line class="cls-1" x1="25.72" y1="25.72" x2="25.72" y2="25.72"/><line class="cls-1" x1="25.72" y1="25.72" x2="25.72" y2="25.72"/><line class="cls-4" x1="45.39" y1="42.09" x2="25.72" y2="25.72"/><line class="cls-5" x1="28.05" y1="51.2" x2="25.72" y2="25.72"/><line class="cls-6" x1="9.36" y1="45.39" x2="25.72" y2="25.72"/><line class="cls-7" x1="25.72" y1="25.72" x2="0.25" y2="28.05"/><line class="cls-8" x1="25.72" y1="25.72" x2="6.06" y2="9.36"/><line class="cls-1" x1="23.39" y1="0.25" x2="25.72" y2="25.72"/><path class="cls-9" d="M39.45,54.91A1,1,0,0,1,40,55l.22.16L47,61.94c.27.27.45.4.55.4s.27-.12.51-.36l6.74-6.74a1.2,1.2,0,0,1,.84-.33c.63,0,1,.34,1,1v16a.94.94,0,0,1-1,1,.93.93,0,0,1-1-1V59.16c0-.22-.11-.33-.25-.33a.89.89,0,0,0-.55.33l-5.67,5.67c-.3.29-.49.44-.59.44s-.26-.15-.55-.44c-2.05-2-4-3.95-5.75-5.71-.24-.24-.42-.37-.54-.37s-.22.14-.22.41V71.9c0,.68-.39,1-1,1a.92.92,0,0,1-1-1v-16A.92.92,0,0,1,39.45,54.91Z"/><path class="cls-9" d="M76.46,72.92q-.92,0-1-1v-1c0-.44-.14-.65-.33-.65a1.06,1.06,0,0,0-.66.32,8.9,8.9,0,0,1-6,2.31,8.66,8.66,0,0,1-5.64-2,8.91,8.91,0,0,1-3.14-5.1c-.15-.66.18-1,1-1q.91,0,1,1a7.31,7.31,0,0,0,2.58,3.66,7,7,0,0,0,9.21-10.58,7,7,0,0,0-11.71,3c-.15.65-.5,1-1.07,1-.8,0-1.13-.33-1-1a8.95,8.95,0,0,1,8.78-7.07,8.22,8.22,0,0,1,5.67,2l.33.29a1.12,1.12,0,0,0,.7.37q.28,0,.33-.66v-1q.07-1,1-1t1,1v16Q77.38,72.92,76.46,72.92Z"/><path class="cls-9" d="M82.57,58a8.54,8.54,0,0,1,5.05-3.11.69.69,0,0,1,.73.22,1.16,1.16,0,0,1,.3.81c0,.56-.35.9-1,1A7.19,7.19,0,0,0,84,59.41a6.87,6.87,0,0,0-1.43,4.25v8.53c0,.49-.38.73-1,.73s-1-.24-1-.73V63.73A8.85,8.85,0,0,1,82.57,58Z"/><path class="cls-9" d="M90.77,46.86c0-.73.35-1.1,1.06-1.1a1.1,1.1,0,1,1,0,2.2C91.12,48,90.77,47.59,90.77,46.86Zm1,8c.64,0,1,.34,1,1v16c0,.68-.39,1-1,1a.92.92,0,0,1-1-1v-16A.92.92,0,0,1,91.79,54.91Z"/><path class="cls-9" d="M144.63,77.7A7,7,0,0,0,146,73.43v-2.3q0-.66-.33-.66a1.14,1.14,0,0,0-.7.36l-.33.3a8.28,8.28,0,0,1-5.67,2A9,9,0,0,1,130.22,66c-.14-.66.2-1,1-1q.84,0,1,1A7,7,0,0,0,139,71.13a7,7,0,1,0,0-14.06,6.86,6.86,0,0,0-4.23,1.43,7.16,7.16,0,0,0-2.58,3.66q-.07,1-1,1-1.2,0-1-1a9,9,0,0,1,3.17-5.11,9,9,0,0,1,14.66,7.09v9.29a8.83,8.83,0,0,1-2,5.71,8.52,8.52,0,0,1-5,3.11.69.69,0,0,1-.74-.22,1.16,1.16,0,0,1-.29-.8c0-.56.34-.9,1-1A6.7,6.7,0,0,0,144.63,77.7Z"/><path class="cls-9" d="M167.74,72.92q-.92,0-1-1v-1c0-.44-.13-.65-.33-.65a1.06,1.06,0,0,0-.65.32,8.9,8.9,0,0,1-6,2.31,8.66,8.66,0,0,1-5.64-2,9,9,0,0,1-3.15-5.1q-.21-1,1-1,.91,0,1,1a7.19,7.19,0,0,0,2.58,3.66,6.83,6.83,0,0,0,4.23,1.42,7,7,0,1,0-4.25-12.62A6.84,6.84,0,0,0,153,62c-.14.65-.5,1-1.06,1-.8,0-1.13-.33-1-1a8.95,8.95,0,0,1,8.79-7.07,8.23,8.23,0,0,1,5.67,2l.33.29a1.12,1.12,0,0,0,.69.37q.3,0,.33-.66v-1q.08-1,1-1t1,1v16Q168.66,72.92,167.74,72.92Z"/><path class="cls-9" d="M184.52,66.09a4.81,4.81,0,0,0-1-1.54,4.58,4.58,0,0,0-1.51-1,4.49,4.49,0,0,0-1.84-.38h-4.28a2.83,2.83,0,0,1-2.1-.9,3,3,0,0,1,0-4.28,3,3,0,0,1,2.1-.93h7.46a1,1,0,0,0,1-1,1,1,0,0,0-.29-.73,1,1,0,0,0-.72-.3h-7.46a4.76,4.76,0,0,0-2,.4,5.3,5.3,0,0,0-1.59,1.09,5.12,5.12,0,0,0-1.07,1.64,5.25,5.25,0,0,0-.39,2,5.08,5.08,0,0,0,.39,2,5.14,5.14,0,0,0,1.07,1.62,5.3,5.3,0,0,0,1.59,1.09,4.76,4.76,0,0,0,2,.4h4.28a2.62,2.62,0,0,1,1.92.82,2.74,2.74,0,0,1,.8,2,2.7,2.7,0,0,1-.8,2,2.58,2.58,0,0,1-1.92.82h-7.91a1,1,0,0,0-.71.3,1,1,0,0,0-.29.74,1,1,0,0,0,.29.73,1,1,0,0,0,.71.3h7.91a4.66,4.66,0,0,0,1.84-.38,4.73,4.73,0,0,0,1.51-1,4.86,4.86,0,0,0,1-1.55,4.76,4.76,0,0,0,.37-1.87A4.81,4.81,0,0,0,184.52,66.09Z"/><path class="cls-9" d="M203.94,79.14a8.83,8.83,0,0,1-2-5.71v-2.3q0-.66-.33-.66a1.12,1.12,0,0,0-.69.36l-.33.3a8.28,8.28,0,0,1-5.68,2,8.78,8.78,0,0,1-5.67-2,8.49,8.49,0,0,1-3.11-5q-.23-1,1-1c.56,0,.9.33,1,1a6.73,6.73,0,0,0,2.49,3.66,7,7,0,1,0,0-11.2,7,7,0,0,0-2.54,3.66.93.93,0,0,1-1,1q-1.22,0-1-1a9,9,0,0,1,3.16-5.11,9,9,0,0,1,14.66,7.09v9.29a7,7,0,0,0,1.41,4.27A6.7,6.7,0,0,0,209,80.2c.69.15,1,.49,1,1a1.16,1.16,0,0,1-.29.8.69.69,0,0,1-.74.22A8.52,8.52,0,0,1,203.94,79.14Z"/><path class="cls-9" d="M208.26,54.91q.92,0,1,1v8a7.09,7.09,0,0,0,14.17,0v-8c0-.66.37-1,1-1s.94.33,1,1v8a8.63,8.63,0,0,1-2.69,6.39,8.81,8.81,0,0,1-6.42,2.65,8.65,8.65,0,0,1-6.37-2.65,8.74,8.74,0,0,1-2.64-6.39v-8Q207.34,54.91,208.26,54.91Z"/><path class="cls-9" d="M255.37,58.32c0-.78-.51-1.24-1.54-1.36h-5.49c-.71-.05-1.06-.39-1.06-1s.35-1,1.06-1h15.93c.7.05,1.06.39,1.06,1s-.36,1-1.06,1H259c-1,0-1.57.42-1.57,1.25V71.9q-.07,1-1,1a.93.93,0,0,1-1-1Z"/><path class="cls-9" d="M113.35,60.38a8.81,8.81,0,0,0-1.89-2.71,9.38,9.38,0,0,0-2.73-1.84,7.85,7.85,0,0,0-3.26-.69,9.62,9.62,0,0,0-3.49.78,8.81,8.81,0,0,0-2.77,1.88,8.31,8.31,0,0,0-1.84,2.74,8.41,8.41,0,0,0-.67,3.37,8.77,8.77,0,0,0,.68,3.47,8.36,8.36,0,0,0,1.88,2.74,8.74,8.74,0,0,0,6.13,2.45,9.92,9.92,0,0,0,3.46-.56,6.8,6.8,0,0,0,2.68-1.89,1,1,0,0,0,.29-.72.92.92,0,0,0-.29-.71,1,1,0,0,0-1.44,0A7,7,0,0,1,108,70.08a6.71,6.71,0,0,1-4.93.08,7.05,7.05,0,0,1-2-1.17,6.69,6.69,0,0,1-1.47-1.78A6.34,6.34,0,0,1,98.79,65l0-.14h14.35a1.14,1.14,0,0,0,.74-.3.84.84,0,0,0,.28-.67,1.21,1.21,0,0,0,0-.18A8.83,8.83,0,0,0,113.35,60.38ZM98.8,62.83l0-.15a7.11,7.11,0,0,1,.8-2.16,6.45,6.45,0,0,1,1.46-1.74,7,7,0,0,1,2-1.15,6.55,6.55,0,0,1,4.67,0,7,7,0,0,1,2,1.15,6.7,6.7,0,0,1,1.48,1.74,6.9,6.9,0,0,1,.82,2.16l0,.15Z"/><polygon class="cls-10" points="98.92 64.98 98.92 64.97 98.92 64.97 98.92 64.98"/><path class="cls-9" d="M245.6,60.38a8.81,8.81,0,0,0-1.89-2.71A9.38,9.38,0,0,0,241,55.83a7.85,7.85,0,0,0-3.26-.69,9.62,9.62,0,0,0-3.49.78,8.81,8.81,0,0,0-2.77,1.88,8.31,8.31,0,0,0-1.84,2.74,8.41,8.41,0,0,0-.67,3.37,8.77,8.77,0,0,0,.68,3.47,8.36,8.36,0,0,0,1.88,2.74,8.74,8.74,0,0,0,6.13,2.45A9.92,9.92,0,0,0,241.1,72a6.8,6.8,0,0,0,2.68-1.89,1,1,0,0,0,.29-.72.92.92,0,0,0-.29-.71,1,1,0,0,0-1.44,0,7,7,0,0,1-2.12,1.39,6.71,6.71,0,0,1-4.93.08,7.05,7.05,0,0,1-2-1.17,6.51,6.51,0,0,1-1.47-1.78A6.34,6.34,0,0,1,231,65l0-.14h14.35a1.14,1.14,0,0,0,.74-.3.84.84,0,0,0,.28-.67,1.21,1.21,0,0,0,0-.18A8.83,8.83,0,0,0,245.6,60.38Zm-14.55,2.45,0-.15a7.11,7.11,0,0,1,.8-2.16,6.45,6.45,0,0,1,1.46-1.74,7,7,0,0,1,2-1.15,6.55,6.55,0,0,1,4.67,0,7,7,0,0,1,2,1.15,6.7,6.7,0,0,1,1.48,1.74,6.9,6.9,0,0,1,.82,2.16l0,.15Z"/><polygon class="cls-10" points="231.17 64.98 231.17 64.97 231.17 64.97 231.17 64.98"/><text class="cls-11" transform="translate(53.06 37.39)"><tspan class="cls-12">l</tspan><tspan x="6.12" y="0">ycée po</tspan><tspan class="cls-13" x="106.56" y="0">l</tspan><tspan x="112.68" y="0">y</tspan><tspan class="cls-14" x="128.4" y="0">v</tspan><tspan x="140.04" y="0">alent</tspan></text></g></g></svg>